<svg width="28" height="27" viewBox="0 0 28 27" fill="none" xmlns="http://www.w3.org/2000/svg">
<path d="M21.0203 11.435L16.4245 16.0448V3.91667C16.4245 3.14312 16.1172 2.40125 15.5702 1.85427C15.0233 1.30729 14.2814 1 13.5078 1C12.7343 1 11.9924 1.30729 11.4454 1.85427C10.8985 2.40125 10.5912 3.14312 10.5912 3.91667V16.0448L5.99352 11.4331L5.99245 11.4321C5.444 10.8836 4.70014 10.5755 3.92451 10.5755C3.14888 10.5755 2.40502 10.8836 1.85657 11.4321C1.30812 11.9805 1 12.7244 1 13.5C1 14.2756 1.30812 15.0195 1.85657 15.5679L11.4399 25.1513L11.4476 25.159L11.4555 25.1665C11.7273 25.4268 12.0469 25.6319 12.3966 25.7706C12.7474 25.9222 13.1255 26.0004 13.5078 26.0004C13.8901 26.0004 14.2683 25.9222 14.6191 25.7706C14.9688 25.6319 15.2883 25.4268 15.5602 25.1665L15.5681 25.159L15.5758 25.1513L25.1562 15.5708C25.1567 15.5703 25.1572 15.5698 25.1577 15.5693C25.4304 15.2985 25.6468 14.9764 25.7946 14.6217C25.9427 14.2663 26.019 13.885 26.019 13.5C26.019 13.115 25.9427 12.7337 25.7946 12.3783C25.6471 12.0241 25.431 11.7024 25.1589 11.4319C24.8884 11.16 24.5669 10.944 24.2129 10.7965C23.8574 10.6485 23.4762 10.5722 23.0912 10.5722C22.7061 10.5722 22.3249 10.6485 21.9695 10.7965C21.6146 10.9444 21.2925 11.1609 21.0216 11.4337C21.0212 11.4341 21.0208 11.4345 21.0203 11.435Z" fill="url(#paint0_linear)" fill-opacity="0.65" stroke="url(#paint1_linear)" stroke-width="2"/>
<defs>
<linearGradient id="paint0_linear" x1="1.99472" y1="13.5023" x2="25.0212" y2="13.5023" gradientUnits="userSpaceOnUse">
<stop stop-color="#624EBA"/>
<stop offset="1" stop-color="#D03951"/>
</linearGradient>
<linearGradient id="paint1_linear" x1="1.99472" y1="13.5023" x2="25.0212" y2="13.5023" gradientUnits="userSpaceOnUse">
<stop stop-color="#624EBA"/>
<stop offset="1" stop-color="#D03951"/>
</linearGradient>
</defs>
</svg>
