<svg width="31" height="33" viewBox="0 0 31 33" fill="none" xmlns="http://www.w3.org/2000/svg">
<path d="M11.1944 27.7895C10.6835 27.7895 10.184 27.9423 9.75922 28.2285C9.33439 28.5148 9.00328 28.9217 8.80776 29.3977C8.61223 29.8738 8.56107 30.3976 8.66075 30.903C8.76043 31.4084 9.00647 31.8726 9.36775 32.2369C9.72904 32.6013 10.1893 32.8494 10.6905 32.9499C11.1916 33.0505 11.711 32.9989 12.183 32.8017C12.6551 32.6045 13.0585 32.2706 13.3424 31.8421C13.6263 31.4137 13.7778 30.91 13.7778 30.3947C13.7778 29.7038 13.5056 29.0411 13.0211 28.5525C12.5367 28.064 11.8796 27.7895 11.1944 27.7895ZM29.2778 22.5789H8.61111C8.15435 22.5789 7.7163 22.396 7.39332 22.0702C7.07034 21.7445 6.88889 21.3027 6.88889 20.8421C6.88889 20.3815 7.07034 19.9397 7.39332 19.614C7.7163 19.2883 8.15435 19.1053 8.61111 19.1053H23.2349C24.3568 19.1016 25.4473 18.7314 26.343 18.0501C27.2387 17.3688 27.8913 16.4131 28.2031 15.3263L30.9336 5.68798C31.0068 5.42949 31.0196 5.15738 30.9708 4.89307C30.9221 4.62877 30.8132 4.37948 30.6527 4.16483C30.4922 3.95018 30.2844 3.77604 30.0459 3.65611C29.8073 3.53617 29.5444 3.47373 29.2778 3.47368H8.16173C7.80521 2.46173 7.14799 1.58523 6.27961 0.963624C5.41123 0.342015 4.37394 0.00552446 3.30906 0H1.72222C1.26546 0 0.827406 0.182988 0.504427 0.508709C0.181448 0.83443 0 1.2762 0 1.73684C0 2.19748 0.181448 2.63925 0.504427 2.96497C0.827406 3.2907 1.26546 3.47368 1.72222 3.47368H3.30906C3.68292 3.475 4.04631 3.59842 4.3448 3.82545C4.64329 4.05248 4.86083 4.37091 4.96484 4.73307L5.23268 5.6792L5.23309 5.68798L8.05862 15.6613C6.74381 15.8039 5.53328 16.4495 4.67629 17.4652C3.8193 18.4809 3.38109 19.7893 3.4519 21.121C3.5227 22.4527 4.09713 23.7063 5.0569 24.6238C6.01667 25.5412 7.28871 26.0526 8.61111 26.0526H29.2778C29.7345 26.0526 30.1726 25.8696 30.4956 25.5439C30.8186 25.2182 31 24.7764 31 24.3158C31 23.8552 30.8186 23.4134 30.4956 23.0877C30.1726 22.7619 29.7345 22.5789 29.2778 22.5789ZM26.9947 6.94737L24.8915 14.3713C24.7876 14.7338 24.57 15.0525 24.2713 15.2797C23.9726 15.5069 23.609 15.6304 23.2349 15.6316H11.6326L11.1935 14.082L9.17328 6.94737H26.9947ZM24.9722 27.7895C24.4613 27.7895 23.9618 27.9423 23.537 28.2285C23.1122 28.5148 22.7811 28.9217 22.5855 29.3977C22.39 29.8738 22.3388 30.3976 22.4385 30.903C22.5382 31.4084 22.7842 31.8726 23.1455 32.2369C23.5068 32.6013 23.9671 32.8494 24.4682 32.9499C24.9694 33.0505 25.4888 32.9989 25.9608 32.8017C26.4329 32.6045 26.8363 32.2706 27.1202 31.8421C27.404 31.4137 27.5556 30.91 27.5556 30.3947C27.5556 29.7038 27.2834 29.0411 26.7989 28.5525C26.3144 28.064 25.6574 27.7895 24.9722 27.7895Z" fill="url(#paint0_linear)"/>
<defs>
<linearGradient id="paint0_linear" x1="-0.00710693" y1="16.503" x2="31.003" y2="16.503" gradientUnits="userSpaceOnUse">
<stop stop-color="#624EBA"/>
<stop offset="1" stop-color="#D03951"/>
</linearGradient>
</defs>
</svg>
