<svg width="1440" height="900" viewBox="0 0 1440 900" fill="none" xmlns="http://www.w3.org/2000/svg">
<g clip-path="url(#clip0)">
<rect width="1440" height="900" fill="url(#paint0_linear)"/>
<path opacity="0.25" fill-rule="evenodd" clip-rule="evenodd" d="M1108.16 300.564C1058.3 421.874 1017.2 521.131 1016.81 521.135C1015.2 521.152 999.889 506.128 988.067 492.928C973.443 476.601 935.763 440.866 922.387 430.641C911.162 422.058 903.462 417.599 893.041 413.649C876.66 407.438 856.507 405.821 837.24 409.171C827.168 410.922 806.064 417.357 800.022 420.519C797.301 421.943 797.917 422.048 806.229 421.567C835.837 419.855 867.465 431.034 888.624 450.69C896.022 457.562 905.364 468.566 905.364 470.406C905.364 470.743 901.835 468.636 897.52 465.722C858.848 439.615 809.511 433.118 764.162 448.159C751.967 452.205 735.489 459.919 726.392 465.843L720 470.005L742.662 470.035C802.367 470.116 852.802 480.658 895.975 502.08C921.653 514.821 934.322 523.787 962.31 549.023C970.3 556.227 980.908 565.276 985.884 569.132C990.859 572.987 994.699 576.696 994.417 577.374C974.218 625.81 819.364 1003.27 819.364 1004.07C819.364 1004.85 868.031 1005.14 965.316 1004.94L1111.27 1004.65L1165.07 867.319C1194.66 791.788 1219.22 729.636 1219.66 729.203C1220.65 728.211 1241.92 733.585 1260.98 739.648C1326.96 760.622 1381.27 794.34 1438.21 849.673C1448.44 859.612 1458.51 869.133 1460.6 870.831C1463.99 873.591 1467.01 880.834 1489.18 939.282L1513.97 1004.65L1660 1004.94C1740.32 1005.1 1806.04 1004.81 1806.04 1004.29C1806.04 1003.77 1795.32 977.037 1782.21 944.889C1769.11 912.742 1758.39 885.998 1758.39 885.458C1758.39 884.918 1761.57 880.694 1765.47 876.07C1774.32 865.555 1783.58 851.669 1789.15 840.523C1794.21 830.412 1801.65 808.542 1804.21 796.269C1817.27 733.807 1795.96 667.954 1749.62 627.479C1721.65 603.055 1686.77 587.188 1642.07 578.55L1632.09 576.622L1531 328.607L1429.9 80.5909L1314.36 80.296L1198.81 80L1108.16 300.564ZM1332.02 525.067L1335.42 534.216L1325.8 533.45C1312.25 532.368 1299.38 530.288 1298.62 529.054C1298.27 528.478 1301.39 519.279 1305.57 508.613C1309.75 497.946 1313.76 487.651 1314.48 485.736C1315.75 482.373 1316.01 482.832 1322.21 499.086C1325.74 508.344 1330.15 520.036 1332.02 525.067ZM1298.17 567.121C1305.74 568.563 1312.8 568.887 1328.36 568.507C1345.59 568.087 1348.12 568.235 1345.05 569.488C1332.61 574.559 1299.93 577.752 1285.26 575.332L1279.9 574.448L1281.77 569.215C1283.31 564.912 1284.06 564.095 1285.97 564.611C1287.25 564.957 1292.74 566.087 1298.17 567.121ZM1298.44 695.668C1305.22 697.936 1314.08 701.45 1318.13 703.478C1334.07 711.466 1354.4 726.724 1362.85 737.038L1366.16 741.073L1361.51 738.347C1326.38 717.738 1283.29 702.472 1242.97 696.348C1237.86 695.57 1233.47 694.769 1233.23 694.565C1232.99 694.362 1233.94 691.369 1235.34 687.916L1237.89 681.635L1262 686.59C1275.26 689.316 1291.65 693.401 1298.44 695.668Z" fill="url(#paint1_radial)"/>
</g>
<defs>
<linearGradient id="paint0_linear" x1="-93" y1="-35" x2="1842" y2="1106.5" gradientUnits="userSpaceOnUse">
<stop stop-color="#624EBA"/>
<stop offset="1" stop-color="#D03951"/>
</linearGradient>
<radialGradient id="paint1_radial" cx="0" cy="0" r="1" gradientUnits="userSpaceOnUse" gradientTransform="translate(1264 542.5) rotate(90) scale(462.5 544)">
<stop stop-opacity="0.75"/>
<stop offset="1" stop-opacity="0"/>
</radialGradient>
<clipPath id="clip0">
<rect width="1440" height="900" fill="white"/>
</clipPath>
</defs>
</svg>
