<svg width="20" height="20" viewBox="0 0 20 20" fill="none" xmlns="http://www.w3.org/2000/svg">
<path d="M18.2499 9.08337C18.0068 9.08337 17.7736 9.17995 17.6017 9.35186C17.4298 9.52377 17.3333 9.75693 17.3333 10C17.3442 11.717 16.756 13.384 15.6701 14.714C14.5842 16.0439 13.0685 16.9536 11.3841 17.2863C9.69961 17.619 7.95189 17.3538 6.44188 16.5366C4.93188 15.7193 3.75412 14.4011 3.11147 12.8089C2.46881 11.2168 2.40148 9.45033 2.92107 7.81386C3.44066 6.17739 4.51465 4.77333 5.95806 3.8435C7.40148 2.91368 9.12395 2.51629 10.8288 2.71979C12.5337 2.92329 14.1143 3.71493 15.2983 4.95837H13.0983C12.8551 4.95837 12.622 5.05495 12.4501 5.22686C12.2782 5.39877 12.1816 5.63192 12.1816 5.87504C12.1816 6.11816 12.2782 6.35131 12.4501 6.52322C12.622 6.69513 12.8551 6.79171 13.0983 6.79171H17.2508C17.4939 6.79171 17.727 6.69513 17.8989 6.52322C18.0708 6.35131 18.1674 6.11816 18.1674 5.87504V1.75004C18.1674 1.50693 18.0708 1.27377 17.8989 1.10186C17.727 0.929951 17.4939 0.833374 17.2508 0.833374C17.0076 0.833374 16.7745 0.929951 16.6026 1.10186C16.4307 1.27377 16.3341 1.50693 16.3341 1.75004V3.37254C14.8075 1.91326 12.8239 1.02583 10.7186 0.860259C8.61327 0.694687 6.51533 1.26113 4.77943 2.46384C3.04353 3.66655 1.77615 5.43175 1.19151 7.46105C0.606882 9.49035 0.740864 11.6593 1.57081 13.6012C2.40076 15.5431 3.87576 17.1389 5.74649 18.1188C7.61722 19.0987 9.76892 19.4027 11.8379 18.9792C13.9068 18.5558 15.7661 17.431 17.1015 15.7949C18.4368 14.1588 19.1663 12.1119 19.1666 10C19.1666 9.75693 19.07 9.52377 18.8981 9.35186C18.7262 9.17995 18.493 9.08337 18.2499 9.08337Z" fill="url(#paint0_linear)"/>
<defs>
<linearGradient id="paint0_linear" x1="0.829049" y1="10.0004" x2="19.1684" y2="10.0004" gradientUnits="userSpaceOnUse">
<stop stop-color="#624EBA"/>
<stop offset="1" stop-color="#D03951"/>
</linearGradient>
</defs>
</svg>
