<svg width="20" height="18" viewBox="0 0 20 18" fill="none" xmlns="http://www.w3.org/2000/svg">
<path d="M0.0363612 13.9697C0.0969632 13.8737 0.193927 13.8677 0.327251 13.9517C3.32799 15.6831 6.74401 16.5842 10.2175 16.5604C12.6245 16.5546 15.0097 16.1094 17.2534 15.2471C17.314 15.2231 17.4019 15.1871 17.517 15.1391C17.6322 15.0911 17.714 15.0551 17.7625 15.0312C17.8343 14.9924 17.9183 14.982 17.9975 15.002C18.0768 15.022 18.1454 15.071 18.1897 15.1391C18.2927 15.283 18.2594 15.415 18.0897 15.5349C17.8715 15.6908 17.5928 15.8708 17.2534 16.0747C16.1621 16.7064 14.9873 17.1848 13.7627 17.496C12.5355 17.8242 11.2705 17.9935 9.99934 17.9998C8.16512 18.0101 6.34544 17.6775 4.63606 17.0192C2.97063 16.3773 1.43678 15.4416 0.109084 14.2575C0.0786016 14.2374 0.0530101 14.2108 0.0341489 14.1797C0.0152877 14.1486 0.00362528 14.1137 0 14.0776C0.00090801 14.0388 0.0135768 14.0012 0.0363612 13.9697V13.9697ZM5.50873 8.84206C5.48692 8.08803 5.70297 7.346 6.12687 6.71905C6.54904 6.12329 7.13619 5.66095 7.81766 5.38768C8.59254 5.08157 9.40609 4.88181 10.2357 4.79395C10.5629 4.75797 11.0962 4.70999 11.8356 4.65002V4.34416C11.8815 3.81551 11.7941 3.28383 11.581 2.79689C11.4435 2.61384 11.2613 2.46831 11.0514 2.37391C10.8416 2.27951 10.6109 2.23934 10.3811 2.25714H10.2357C9.86114 2.28378 9.50187 2.41476 9.19939 2.63497C8.90551 2.85548 8.7047 3.176 8.63579 3.53454C8.62861 3.63317 8.58928 3.72683 8.52371 3.80145C8.45814 3.87607 8.36988 3.92762 8.27218 3.94835L6.18141 3.69647C5.97536 3.64849 5.87234 3.54054 5.87234 3.37262C5.87325 3.33007 5.87935 3.28778 5.89052 3.24668C5.96091 2.76754 6.13247 2.30845 6.39402 1.89927C6.65558 1.49009 7.00127 1.14001 7.4086 0.871792C8.25768 0.342602 9.23292 0.0446935 10.2357 0.00819678H10.6902C11.8666 -0.0617717 13.0251 0.31825 13.9263 1.0697C14.048 1.19019 14.1604 1.31949 14.2627 1.45652C14.3523 1.5742 14.4343 1.69739 14.5081 1.82535C14.5832 1.97349 14.6382 2.13077 14.6718 2.29313C14.7202 2.49703 14.7566 2.63796 14.7808 2.71593C14.8157 2.88166 14.834 3.0504 14.8354 3.21969C14.8475 3.47757 14.8536 3.6305 14.8536 3.67848V8.03244C14.8501 8.32287 14.8962 8.61179 14.9899 8.88703C15.0513 9.08413 15.14 9.27184 15.2535 9.44477C15.3384 9.55872 15.4778 9.74163 15.6717 9.99352C15.7355 10.0769 15.7735 10.177 15.7808 10.2814C15.779 10.3319 15.7649 10.3812 15.7395 10.4251C15.7142 10.469 15.6784 10.5061 15.6353 10.5333C14.6293 11.3969 14.0839 11.8646 13.9991 11.9366C13.9231 11.9901 13.8336 12.0217 13.7406 12.0281C13.6475 12.0344 13.5545 12.0152 13.4718 11.9726C13.3021 11.8287 13.1537 11.6907 13.0264 11.5588C12.8991 11.4268 12.8082 11.3309 12.7537 11.2709C12.6595 11.1588 12.5715 11.0417 12.4901 10.9201C12.3689 10.7462 12.284 10.6292 12.2356 10.5692C11.7096 11.1993 11.0173 11.6727 10.2357 11.9366C9.73768 12.0672 9.22358 12.1278 8.70851 12.1165C8.28709 12.1318 7.86679 12.0641 7.472 11.9174C7.07721 11.7707 6.71577 11.5479 6.40867 11.2619C6.09706 10.9425 5.85611 10.5624 5.70116 10.1458C5.54622 9.72915 5.48068 9.28514 5.50873 8.84206V8.84206ZM8.63579 8.48222C8.6152 8.88683 8.74088 9.28547 8.99031 9.6067C9.10568 9.74525 9.25187 9.85551 9.41745 9.92886C9.58304 10.0022 9.76352 10.0367 9.94479 10.0295C9.99672 10.0278 10.0484 10.0218 10.0993 10.0115C10.1443 10.0022 10.1898 9.99617 10.2357 9.99352C10.4916 9.92494 10.7295 9.80269 10.9334 9.63505C11.1373 9.46742 11.3024 9.25832 11.4174 9.02197C11.553 8.78856 11.654 8.53711 11.7174 8.27532C11.7753 8.06045 11.8118 7.84052 11.8265 7.61863C11.8325 7.45071 11.8356 7.17484 11.8356 6.79102V6.34123C11.2984 6.32479 10.7611 6.37313 10.2357 6.48516C9.76921 6.56858 9.34945 6.81737 9.05496 7.18496C8.76048 7.55255 8.61146 8.01375 8.63579 8.48222V8.48222ZM16.2716 14.2755C16.3 14.2221 16.3368 14.1735 16.3807 14.1316C16.6457 13.9455 16.9408 13.8055 17.2534 13.7178C17.6927 13.6009 18.1441 13.5345 18.5988 13.5199C18.7141 13.5076 18.8308 13.5136 18.9442 13.5379C19.4896 13.5858 19.8169 13.6758 19.9259 13.8077C19.981 13.9066 20.0063 14.019 19.9987 14.1316V14.2575C19.9782 14.7693 19.861 15.2727 19.6532 15.7418C19.451 16.2719 19.12 16.7445 18.6897 17.1182C18.6448 17.1596 18.5872 17.1849 18.526 17.1901C18.5007 17.1899 18.4758 17.1837 18.4533 17.1722C18.3806 17.1362 18.3624 17.0702 18.3988 16.9742C18.7439 16.2907 18.9712 15.5549 19.0715 14.7973C19.0799 14.696 19.0544 14.5948 18.9987 14.5094C18.8775 14.3655 18.5382 14.2935 17.9806 14.2935C17.7746 14.2935 17.5322 14.3055 17.2534 14.3295C16.9504 14.3655 16.6716 14.4015 16.4171 14.4374C16.3658 14.4435 16.314 14.4307 16.2716 14.4014C16.2607 14.3934 16.2529 14.3818 16.2496 14.3687C16.2463 14.3556 16.2477 14.3417 16.2535 14.3295C16.2557 14.3104 16.2619 14.2921 16.2716 14.2755Z" fill="url(#paint0_linear)"/>
<defs>
<linearGradient id="paint0_linear" x1="-0.00458512" y1="9.00163" x2="20.002" y2="9.00163" gradientUnits="userSpaceOnUse">
<stop stop-color="#624EBA"/>
<stop offset="1" stop-color="#D03951"/>
</linearGradient>
</defs>
</svg>
