<svg width="18" height="18" viewBox="0 0 18 18" fill="none" xmlns="http://www.w3.org/2000/svg">
<path d="M7 13.4444L6.33333 16.1111L5.44444 17H12.5556L11.6667 16.1111L11 13.4444H7ZM1 9.88889H17H1ZM2.77778 13.4444H15.2222C15.6937 13.4444 16.1459 13.2571 16.4793 12.9237C16.8127 12.5903 17 12.1382 17 11.6667V2.77778C17 2.30628 16.8127 1.8541 16.4793 1.5207C16.1459 1.1873 15.6937 1 15.2222 1H2.77778C2.30628 1 1.8541 1.1873 1.5207 1.5207C1.1873 1.8541 1 2.30628 1 2.77778V11.6667C1 12.1382 1.1873 12.5903 1.5207 12.9237C1.8541 13.2571 2.30628 13.4444 2.77778 13.4444Z" fill="url(#paint0_linear)" stroke="url(#paint1_linear)" stroke-width="2" stroke-linecap="round" stroke-linejoin="round"/>
<defs>
<linearGradient id="paint0_linear" x1="0.996332" y1="9.00145" x2="17.0016" y2="9.00145" gradientUnits="userSpaceOnUse">
<stop stop-color="#624EBA"/>
<stop offset="1" stop-color="#D03951"/>
</linearGradient>
<linearGradient id="paint1_linear" x1="0.996332" y1="9.00145" x2="17.0016" y2="9.00145" gradientUnits="userSpaceOnUse">
<stop stop-color="#624EBA"/>
<stop offset="1" stop-color="#D03951"/>
</linearGradient>
</defs>
</svg>
