<svg width="18" height="16" viewBox="0 0 18 16" fill="none" xmlns="http://www.w3.org/2000/svg">
<path d="M17.1 5.33333C17.3387 5.33333 17.5676 5.23968 17.7364 5.07298C17.9052 4.90628 18 4.68019 18 4.44444C18 4.2087 17.9052 3.9826 17.7364 3.81591C17.5676 3.64921 17.3387 3.55556 17.1 3.55556H16.2V1.77778H17.1C17.3387 1.77778 17.5676 1.68413 17.7364 1.51743C17.9052 1.35073 18 1.12464 18 0.888889C18 0.653141 17.9052 0.427048 17.7364 0.260349C17.5676 0.0936505 17.3387 0 17.1 0H0.9C0.661305 0 0.432387 0.0936505 0.263604 0.260349C0.0948211 0.427048 0 0.653141 0 0.888889C0 1.12464 0.0948211 1.35073 0.263604 1.51743C0.432387 1.68413 0.661305 1.77778 0.9 1.77778H3.6V3.55556H0.9C0.661305 3.55556 0.432387 3.64921 0.263604 3.81591C0.0948211 3.9826 0 4.2087 0 4.44444C0 4.68019 0.0948211 4.90628 0.263604 5.07298C0.432387 5.23968 0.661305 5.33333 0.9 5.33333H1.8V7.11111H0.9C0.661305 7.11111 0.432387 7.20476 0.263604 7.37146C0.0948211 7.53816 0 7.76425 0 8C0 8.23575 0.0948211 8.46184 0.263604 8.62854C0.432387 8.79524 0.661305 8.88889 0.9 8.88889H3.6V10.6667H0.9C0.661305 10.6667 0.432387 10.7603 0.263604 10.927C0.0948211 11.0937 0 11.3198 0 11.5556C0 11.7913 0.0948211 12.0174 0.263604 12.1841C0.432387 12.3508 0.661305 12.4444 0.9 12.4444H1.8V14.2222H0.9C0.661305 14.2222 0.432387 14.3159 0.263604 14.4826C0.0948211 14.6493 0 14.8754 0 15.1111C0 15.3469 0.0948211 15.573 0.263604 15.7397C0.432387 15.9064 0.661305 16 0.9 16H17.1C17.3387 16 17.5676 15.9064 17.7364 15.7397C17.9052 15.573 18 15.3469 18 15.1111C18 14.8754 17.9052 14.6493 17.7364 14.4826C17.5676 14.3159 17.3387 14.2222 17.1 14.2222H14.4V12.4444H17.1C17.3387 12.4444 17.5676 12.3508 17.7364 12.1841C17.9052 12.0174 18 11.7913 18 11.5556C18 11.3198 17.9052 11.0937 17.7364 10.927C17.5676 10.7603 17.3387 10.6667 17.1 10.6667H16.2V8.88889H17.1C17.3387 8.88889 17.5676 8.79524 17.7364 8.62854C17.9052 8.46184 18 8.23575 18 8C18 7.76425 17.9052 7.53816 17.7364 7.37146C17.5676 7.20476 17.3387 7.11111 17.1 7.11111H14.4V5.33333H17.1ZM5.4 1.77778H9V3.55556H5.4V1.77778ZM12.6 5.33333V7.11111H9V5.33333H12.6ZM3.6 5.33333H7.2V7.11111H3.6V5.33333ZM9 8.88889V10.6667H5.4V8.88889H9ZM7.2 14.2222H3.6V12.4444H7.2V14.2222ZM12.6 14.2222H9V12.4444H12.6V14.2222ZM14.4 10.6667H10.8V8.88889H14.4V10.6667ZM10.8 3.55556V1.77778H14.4V3.55556H10.8Z" fill="url(#paint0_linear)"/>
<defs>
<linearGradient id="paint0_linear" x1="-0.00412661" y1="8.00145" x2="18.0018" y2="8.00145" gradientUnits="userSpaceOnUse">
<stop stop-color="#624EBA"/>
<stop offset="1" stop-color="#D03951"/>
</linearGradient>
</defs>
</svg>
