<svg width="20" height="16" viewBox="0 0 20 16" fill="none" xmlns="http://www.w3.org/2000/svg">
<path d="M0 15.0588L0.5 15.0593C0.501254 13.7055 0.879668 12.382 1.5884 11.247C2.29703 10.1122 3.30522 9.21481 4.49054 8.65989L5.17581 8.33907L4.61198 7.83448C4.1799 7.44779 3.83221 6.9685 3.59351 6.42847C3.3548 5.88841 3.23097 5.30087 3.23098 4.70589C3.23098 3.58514 3.66176 2.51351 4.42352 1.72594C5.18473 0.938928 6.21353 0.5 7.28262 0.5C8.3517 0.5 9.3805 0.938928 10.1417 1.72594C10.9035 2.51351 11.3343 3.58514 11.3343 4.70588C11.3343 5.30087 11.2104 5.88841 10.9717 6.42847C10.733 6.9685 10.3853 7.44779 9.95326 7.83448L10.2867 8.20706L10.0747 8.65989C11.26 9.21481 12.2682 10.1122 12.9768 11.247C13.6856 12.382 14.064 13.7055 14.0652 15.0593L14.5652 15.0588M0 15.0588H0.5C0.5 15.1811 0.547142 15.2952 0.626023 15.3767C0.704356 15.4577 0.806979 15.5 0.910327 15.5C1.01367 15.5 1.1163 15.4577 1.19463 15.3767C1.27351 15.2952 1.32065 15.1811 1.32065 15.0588C1.32065 13.4338 1.94488 11.8721 3.06103 10.7181C4.17773 9.56359 5.69593 8.91177 7.28262 8.91177C8.86931 8.91177 10.3875 9.56359 11.5042 10.7181C12.6204 11.8721 13.2446 13.4338 13.2446 15.0588C13.2446 15.1811 13.2917 15.2952 13.3706 15.3767C13.4489 15.4577 13.5516 15.5 13.6549 15.5C13.7583 15.5 13.8609 15.4577 13.9392 15.3767C14.0181 15.2952 14.0652 15.1811 14.0652 15.0588H14.5652M0 15.0588C0.00133987 13.6125 0.405546 12.1972 1.16429 10.9822C1.82732 9.92036 2.73656 9.05073 3.80576 8.45012H10.7595C11.8287 9.05073 12.7379 9.92036 13.4009 10.9822C14.1597 12.1972 14.5639 13.6125 14.5652 15.0588M0 15.0588C0 15.3084 0.0959091 15.5478 0.266629 15.7243C0.437348 15.9008 0.668893 16 0.910327 16C1.15176 16 1.38331 15.9008 1.55403 15.7243C1.72474 15.5478 1.82065 15.3084 1.82065 15.0588C1.82065 13.5611 2.39611 12.1248 3.42043 11.0658C4.44474 10.0067 5.83401 9.41177 7.28262 9.41177C8.73122 9.41177 10.1205 10.0067 11.1448 11.0658C12.1691 12.1248 12.7446 13.5611 12.7446 15.0588C12.7446 15.3084 12.8405 15.5478 13.0112 15.7243C13.1819 15.9008 13.4135 16 13.6549 16C13.8963 16 14.1279 15.9008 14.2986 15.7243C14.4693 15.5478 14.5652 15.3084 14.5652 15.0588M12.7446 0.5H12.7447C13.522 0.499785 14.2842 0.731774 14.9396 1.16994C15.5951 1.60823 16.1165 2.23472 16.4387 2.97583C16.761 3.71707 16.8695 4.53983 16.7504 5.34452C16.6313 6.14917 16.2901 6.89918 15.7699 7.50481L16.1492 7.83059L15.8778 8.25055C16.9898 8.96907 17.9075 9.97088 18.5422 11.1622C19.1769 12.3536 19.5069 13.6941 19.4999 15.0562V15.0588C19.4999 15.1811 19.4527 15.2952 19.3739 15.3767C19.2955 15.4577 19.1929 15.5 19.0896 15.5C18.9862 15.5 18.8836 15.4577 18.8053 15.3767C18.7267 15.2955 18.6796 15.182 18.6792 15.0603C18.6891 13.7137 18.3269 12.3911 17.6336 11.2479C16.9422 10.1077 15.9495 9.19232 14.77 8.61104L14.6837 8.563L14.3483 8.33185L14.3483 8.33184L14.3458 8.33013C14.2878 8.29066 14.2386 8.23528 14.2045 8.16787C14.1704 8.10048 14.153 8.02418 14.1548 7.94636C14.1568 7.86798 14.1783 7.79238 14.216 7.72688C14.2537 7.66134 14.306 7.60887 14.3662 7.57296L14.3663 7.57286C14.8569 7.28006 15.2624 6.86048 15.5441 6.3577C15.8257 5.85501 15.974 5.28592 15.9756 4.70719V4.70588C15.9756 3.8297 15.6391 2.9862 15.0351 2.36173C14.4305 1.7367 13.607 1.38235 12.7446 1.38235C12.6412 1.38235 12.5386 1.34006 12.4603 1.25907C12.3814 1.17752 12.3343 1.06346 12.3343 0.941177C12.3343 0.818893 12.3814 0.704833 12.4603 0.623279C12.5386 0.54229 12.6412 0.5 12.7446 0.5ZM5.48117 7.46494C6.01287 7.83225 6.63981 8.02941 7.28262 8.02941C8.145 8.02941 8.96856 7.67507 9.57311 7.05003C10.1771 6.42557 10.5136 5.58206 10.5136 4.70588C10.5136 4.05219 10.3262 3.41188 9.97328 2.86582C9.62026 2.31959 9.11678 1.89128 8.52455 1.63766C7.93212 1.38394 7.2792 1.31728 6.64911 1.44686C6.01914 1.57641 5.44284 1.89574 4.99213 2.36173C4.54158 2.82754 4.23654 3.41904 4.11311 4.06058C3.9897 4.70205 4.05291 5.36712 4.29538 5.97235C4.53791 6.57771 4.94969 7.09778 5.48117 7.46494Z" fill="url(#paint0_linear)" stroke="url(#paint1_linear)"/>
<defs>
<linearGradient id="paint0_linear" x1="-0.00458512" y1="8.00145" x2="20.002" y2="8.00145" gradientUnits="userSpaceOnUse">
<stop stop-color="#624EBA"/>
<stop offset="1" stop-color="#D03951"/>
</linearGradient>
<linearGradient id="paint1_linear" x1="-0.00458512" y1="8.00145" x2="20.002" y2="8.00145" gradientUnits="userSpaceOnUse">
<stop stop-color="#624EBA"/>
<stop offset="1" stop-color="#D03951"/>
</linearGradient>
</defs>
</svg>
