<svg width="23" height="30" viewBox="0 0 23 30" fill="none" xmlns="http://www.w3.org/2000/svg">
<path d="M12.9375 18H7.1875C6.80625 18 6.44062 18.158 6.17103 18.4393C5.90145 18.7206 5.75 19.1022 5.75 19.5C5.75 19.8978 5.90145 20.2794 6.17103 20.5607C6.44062 20.842 6.80625 21 7.1875 21H12.9375C13.3187 21 13.6844 20.842 13.954 20.5607C14.2235 20.2794 14.375 19.8978 14.375 19.5C14.375 19.1022 14.2235 18.7206 13.954 18.4393C13.6844 18.158 13.3187 18 12.9375 18ZM18.6875 3H16.9912C16.6947 2.12468 16.1459 1.3665 15.4202 0.829408C14.6944 0.292318 13.8272 0.00260927 12.9375 0H10.0625C9.17277 0.00260927 8.30559 0.292318 7.57984 0.829408C6.8541 1.3665 6.30533 2.12468 6.00875 3H4.3125C3.16875 3 2.07185 3.47411 1.2631 4.31802C0.454352 5.16193 0 6.30653 0 7.5V25.5C0 26.6935 0.454352 27.8381 1.2631 28.682C2.07185 29.5259 3.16875 30 4.3125 30H18.6875C19.8312 30 20.9281 29.5259 21.7369 28.682C22.5456 27.8381 23 26.6935 23 25.5V7.5C23 6.30653 22.5456 5.16193 21.7369 4.31802C20.9281 3.47411 19.8312 3 18.6875 3V3ZM8.625 4.5C8.625 4.10218 8.77645 3.72064 9.04603 3.43934C9.31562 3.15804 9.68125 3 10.0625 3H12.9375C13.3187 3 13.6844 3.15804 13.954 3.43934C14.2235 3.72064 14.375 4.10218 14.375 4.5V6H8.625V4.5ZM20.125 25.5C20.125 25.8978 19.9736 26.2794 19.704 26.5607C19.4344 26.842 19.0687 27 18.6875 27H4.3125C3.93125 27 3.56562 26.842 3.29603 26.5607C3.02645 26.2794 2.875 25.8978 2.875 25.5V7.5C2.875 7.10218 3.02645 6.72064 3.29603 6.43934C3.56562 6.15804 3.93125 6 4.3125 6H5.75V7.5C5.75 7.89782 5.90145 8.27936 6.17103 8.56066C6.44062 8.84196 6.80625 9 7.1875 9H15.8125C16.1937 9 16.5594 8.84196 16.829 8.56066C17.0985 8.27936 17.25 7.89782 17.25 7.5V6H18.6875C19.0687 6 19.4344 6.15804 19.704 6.43934C19.9736 6.72064 20.125 7.10218 20.125 7.5V25.5ZM15.8125 12H7.1875C6.80625 12 6.44062 12.158 6.17103 12.4393C5.90145 12.7206 5.75 13.1022 5.75 13.5C5.75 13.8978 5.90145 14.2794 6.17103 14.5607C6.44062 14.842 6.80625 15 7.1875 15H15.8125C16.1937 15 16.5594 14.842 16.829 14.5607C17.0985 14.2794 17.25 13.8978 17.25 13.5C17.25 13.1022 17.0985 12.7206 16.829 12.4393C16.5594 12.158 16.1937 12 15.8125 12Z" fill="url(#paint0_linear)"/>
<defs>
<linearGradient id="paint0_linear" x1="-0.00527288" y1="15.0027" x2="23.0023" y2="15.0027" gradientUnits="userSpaceOnUse">
<stop stop-color="#624EBA"/>
<stop offset="1" stop-color="#D03951"/>
</linearGradient>
</defs>
</svg>
