<svg width="29" height="29" viewBox="0 0 29 29" fill="none" xmlns="http://www.w3.org/2000/svg">
<path d="M12.9167 10.3333H18.0833C18.4259 10.3333 18.7544 10.1972 18.9967 9.95501C19.2389 9.71278 19.375 9.38424 19.375 9.04167C19.375 8.69909 19.2389 8.37056 18.9967 8.12832C18.7544 7.88609 18.4259 7.75 18.0833 7.75H15.5V6.45833C15.5 6.11576 15.3639 5.78722 15.1217 5.54499C14.8794 5.30275 14.5509 5.16667 14.2083 5.16667C13.8658 5.16667 13.5372 5.30275 13.295 5.54499C13.0528 5.78722 12.9167 6.11576 12.9167 6.45833V7.75C11.889 7.75 10.9033 8.15826 10.1766 8.88496C9.44993 9.61166 9.04167 10.5973 9.04167 11.625C9.04167 12.6527 9.44993 13.6383 10.1766 14.365C10.9033 15.0917 11.889 15.5 12.9167 15.5H15.5C15.8426 15.5 16.1711 15.6361 16.4134 15.8783C16.6556 16.1206 16.7917 16.4491 16.7917 16.7917C16.7917 17.1342 16.6556 17.4628 16.4134 17.705C16.1711 17.9472 15.8426 18.0833 15.5 18.0833H10.3333C9.99077 18.0833 9.66223 18.2194 9.41999 18.4617C9.17776 18.7039 9.04167 19.0324 9.04167 19.375C9.04167 19.7176 9.17776 20.0461 9.41999 20.2883C9.66223 20.5306 9.99077 20.6667 10.3333 20.6667H12.9167V21.9583C12.9167 22.3009 13.0528 22.6294 13.295 22.8717C13.5372 23.1139 13.8658 23.25 14.2083 23.25C14.5509 23.25 14.8794 23.1139 15.1217 22.8717C15.3639 22.6294 15.5 22.3009 15.5 21.9583V20.6667C16.5277 20.6667 17.5133 20.2584 18.24 19.5317C18.9667 18.805 19.375 17.8194 19.375 16.7917C19.375 15.764 18.9667 14.7783 18.24 14.0516C17.5133 13.3249 16.5277 12.9167 15.5 12.9167H12.9167C12.5741 12.9167 12.2456 12.7806 12.0033 12.5383C11.7611 12.2961 11.625 11.9676 11.625 11.625C11.625 11.2824 11.7611 10.9539 12.0033 10.7117C12.2456 10.4694 12.5741 10.3333 12.9167 10.3333V10.3333ZM14.2083 0C11.3982 0 8.65116 0.833304 6.31461 2.39454C3.97806 3.95577 2.15695 6.17481 1.08155 8.77104C0.00615621 11.3673 -0.275216 14.2241 0.273015 16.9802C0.821247 19.7364 2.17446 22.2681 4.16153 24.2551C6.1486 26.2422 8.68028 27.5954 11.4364 28.1437C14.1926 28.6919 17.0494 28.4105 19.6456 27.3351C22.2419 26.2597 24.4609 24.4386 26.0221 22.1021C27.5834 19.7655 28.4167 17.0185 28.4167 14.2083C28.4167 10.44 26.9197 6.8261 24.2551 4.16152C21.5906 1.49695 17.9766 0 14.2083 0V0ZM14.2083 25.8333C11.9091 25.8333 9.66156 25.1515 7.74983 23.8742C5.83811 22.5968 4.34811 20.7812 3.46824 18.657C2.58837 16.5328 2.35816 14.1954 2.80671 11.9404C3.25526 9.68538 4.36244 7.614 5.98822 5.98822C7.61401 4.36243 9.68538 3.25526 11.9404 2.8067C14.1954 2.35815 16.5328 2.58836 18.657 3.46823C20.7812 4.3481 22.5968 5.83811 23.8742 7.74983C25.1515 9.66155 25.8333 11.9091 25.8333 14.2083C25.8333 17.2915 24.6086 20.2483 22.4285 22.4284C20.2483 24.6086 17.2915 25.8333 14.2083 25.8333V25.8333Z" fill="url(#paint0_linear)"/>
<defs>
<linearGradient id="paint0_linear" x1="-0.00651469" y1="14.2109" x2="28.4195" y2="14.2109" gradientUnits="userSpaceOnUse">
<stop stop-color="#624EBA"/>
<stop offset="1" stop-color="#D03951"/>
</linearGradient>
</defs>
</svg>
