<svg width="14" height="15" viewBox="0 0 14 15" fill="none" xmlns="http://www.w3.org/2000/svg">
<path d="M0.509766 12.3538L0.558551 12.4941C0.552304 12.4781 0.534456 12.429 0.509766 12.3538ZM2.44035 9.17439C2.52602 8.42051 2.81695 7.99843 3.36519 7.56573C4.14962 6.97972 5.12949 7.31121 5.12949 7.31121V5.34471C5.3677 5.33824 5.60601 5.35324 5.84163 5.38955V7.92025C5.84163 7.92025 4.86206 7.58876 4.07763 8.17508C3.52969 8.60747 3.23817 9.02986 3.15279 9.78373C3.15012 10.1931 3.2224 10.7282 3.55527 11.1909C3.47297 11.146 3.38909 11.0949 3.30361 11.0376C2.57035 10.5143 2.43678 9.72919 2.44035 9.17439ZM9.88753 1.70865C9.34792 1.08021 9.14386 0.445721 9.07008 0H9.74891C9.74891 0 9.61356 1.16869 10.6 2.31799L10.6137 2.33344C10.3478 2.15571 10.104 1.94593 9.88753 1.70865V1.70865ZM13.1576 3.49032V5.97011C13.1576 5.97011 12.2914 5.93405 11.6503 5.76073C10.7553 5.51833 10.1799 5.14654 10.1799 5.14654C10.1799 5.14654 9.78253 4.88141 9.7504 4.86293V9.98372C9.7504 10.2688 9.67692 10.9809 9.45293 11.5748C9.16051 12.3517 8.70925 12.8617 8.62626 12.9659C8.62626 12.9659 8.07742 13.6552 7.10916 14.1194C6.23638 14.5382 5.47009 14.5276 5.24104 14.5382C5.24104 14.5382 3.9164 14.5939 2.72444 13.7707C2.46668 13.5892 2.22608 13.3837 2.00575 13.1568L2.0117 13.1613C3.20396 13.9846 4.5283 13.9288 4.5283 13.9288C4.75765 13.9182 5.52393 13.9288 6.39642 13.5101C7.36379 13.0459 7.91352 12.3565 7.91352 12.3565C7.99562 12.2523 8.44896 11.7424 8.74019 10.9651C8.96359 10.3716 9.03766 9.6592 9.03766 9.37407V4.25389C9.06979 4.27268 9.46691 4.5378 9.46691 4.5378C9.46691 4.5378 10.0425 4.9099 10.9376 5.152C11.579 5.32532 12.4449 5.36137 12.4449 5.36137V3.4182C12.7412 3.4888 12.9937 3.50789 13.1576 3.49032V3.49032Z" fill="#624EBA"/>
<path d="M12.4451 3.4182V5.36077C12.4451 5.36077 11.5792 5.32471 10.9378 5.15139C10.0427 4.90899 9.46713 4.5372 9.46713 4.5372C9.46713 4.5372 9.07 4.27207 9.03788 4.25328V9.37468C9.03788 9.6598 8.9644 10.3722 8.74041 10.9658C8.44799 11.743 7.99673 12.2529 7.91374 12.3572C7.91374 12.3572 7.3646 13.0465 6.39663 13.5107C5.52415 13.9294 4.75787 13.9188 4.52852 13.9294C4.52852 13.9294 3.20418 13.9852 2.01191 13.1619L2.00597 13.1574C1.88009 13.0279 1.7616 12.8911 1.65108 12.7477C1.27062 12.2547 1.0374 11.6718 0.978799 11.5054C0.978697 11.5047 0.978697 11.504 0.978799 11.5033C0.8845 11.2142 0.686385 10.52 0.713455 9.84767C0.761347 8.6614 1.15401 7.93328 1.25783 7.75087C1.53278 7.25345 1.89039 6.8084 2.31474 6.43553C2.68921 6.11377 3.11365 5.85777 3.57066 5.67801C4.06471 5.46696 4.59375 5.35383 5.12941 5.34471V7.31121C5.12941 7.31121 4.14954 6.98093 3.36541 7.56573C2.81717 7.99843 2.52624 8.42051 2.44057 9.17439C2.437 9.72919 2.57056 10.5143 3.30324 11.0379C3.38871 11.0954 3.4726 11.1465 3.5549 11.1912C3.68289 11.368 3.83868 11.5221 4.01598 11.6472C4.73169 12.1287 5.33139 12.1623 6.09827 11.8496C6.60962 11.6405 6.99455 11.1694 7.17303 10.6473C7.28518 10.3213 7.28369 9.99311 7.28369 9.65374V0H9.06852C9.14229 0.445721 9.34636 1.08021 9.88597 1.70865C10.1024 1.94593 10.3462 2.15571 10.6121 2.33344C10.6906 2.4198 11.0922 2.84673 11.6077 3.10883C11.8743 3.24431 12.1553 3.34812 12.4451 3.4182V3.4182Z" fill="white"/>
<path d="M3.57048 5.67804C3.11347 5.8578 2.68902 6.1138 2.31456 6.43555C1.89007 6.80927 1.53255 7.25525 1.25794 7.75363C1.15413 7.93543 0.761464 8.66416 0.713572 9.85042C0.686502 10.5228 0.884617 11.217 0.978916 11.506C0.978814 11.5067 0.978814 11.5075 0.978916 11.5082C1.03841 11.673 1.27073 12.256 1.6512 12.7505C1.76172 12.8938 1.88021 13.0306 2.00608 13.1601C1.60277 12.876 1.24308 12.5325 0.938757 12.1408C0.561564 11.6521 0.328942 11.0752 0.268258 10.9049C0.268186 10.9037 0.268186 10.9025 0.268258 10.9012V10.8991C0.173662 10.6104 -0.0250482 9.91587 0.00261658 9.24259C0.0505094 8.05633 0.443171 7.32821 0.546988 7.1458C0.821516 6.64737 1.17905 6.20137 1.6036 5.82773C1.97799 5.50586 2.40245 5.24985 2.85953 5.07021C3.14462 4.94972 3.44162 4.86084 3.74539 4.80508C4.20319 4.72368 4.67075 4.71663 5.13072 4.78418V5.34474C4.59455 5.35367 4.06499 5.4668 3.57048 5.67804V5.67804Z" fill="#CE3952"/>
</svg>
