<svg width="14" height="11" viewBox="0 0 14 11" fill="none" xmlns="http://www.w3.org/2000/svg">
<path d="M13.3333 1.3004C12.8322 1.5178 12.3023 1.66151 11.76 1.72707C12.3321 1.38528 12.7608 0.847588 12.9667 0.213734C12.429 0.533776 11.8405 0.759265 11.2267 0.8804C10.8164 0.435448 10.27 0.139264 9.67321 0.0383011C9.07643 -0.0626621 8.46303 0.0373058 7.92919 0.322526C7.39536 0.607747 6.97129 1.06209 6.72349 1.61429C6.4757 2.16649 6.41819 2.78533 6.56 3.37373C5.47295 3.31875 4.40963 3.0357 3.4391 2.54297C2.46858 2.05025 1.61256 1.35886 0.926667 0.513733C0.686092 0.933846 0.559679 1.40961 0.56 1.89373C0.559147 2.34332 0.669478 2.78614 0.88117 3.18278C1.09286 3.57941 1.39935 3.91754 1.77333 4.16707C1.33865 4.15524 0.913257 4.0386 0.533333 3.82707V3.8604C0.536591 4.49033 0.75733 5.09979 1.15821 5.58571C1.55909 6.07163 2.1155 6.40416 2.73333 6.52707C2.4955 6.59944 2.24858 6.6376 2 6.6404C1.82793 6.63839 1.65628 6.62279 1.48667 6.59373C1.66261 7.13561 2.00308 7.60916 2.46072 7.94851C2.91835 8.28785 3.47038 8.4761 4.04 8.48707C3.07814 9.24391 1.89059 9.65697 0.666667 9.6604C0.443824 9.66113 0.221157 9.64777 0 9.6204C1.24962 10.4272 2.70588 10.8555 4.19333 10.8537C5.21979 10.8644 6.23809 10.6704 7.18874 10.2831C8.1394 9.89583 9.00335 9.32299 9.73014 8.59806C10.4569 7.87314 11.032 7.01066 11.4217 6.061C11.8114 5.11135 12.008 4.09355 12 3.06707C12 2.95373 12 2.83373 12 2.71373C12.5231 2.32361 12.9743 1.84535 13.3333 1.3004V1.3004Z" fill="white"/>
</svg>
